<svg xmlns="http://www.w3.org/2000/svg" width="25" height="26" viewBox="0 0 25 26" fill="none">
  <path d="M22.9163 8.17699C22.9163 8.89199 22.3538 9.47699 21.6663 9.47699H3.33301C2.64551 9.47699 2.08301 8.89199 2.08301 8.17699V8.16615C2.08301 5.68532 4.01009 3.68115 6.39551 3.68115H18.5934C20.9788 3.68115 22.9163 5.69615 22.9163 8.17699ZM2.08301 12.4042V17.8317C2.08301 20.3125 4.01009 22.3167 6.39551 22.3167H18.5934C20.9788 22.3167 22.9163 20.3017 22.9163 17.8208V12.4042C22.9163 11.6892 22.3538 11.1042 21.6663 11.1042H3.33301C2.64551 11.1042 2.08301 11.6892 2.08301 12.4042ZM8.33301 18.6875H6.24967C5.82259 18.6875 5.46842 18.3192 5.46842 17.875C5.46842 17.4308 5.82259 17.0625 6.24967 17.0625H8.33301C8.76009 17.0625 9.11426 17.4308 9.11426 17.875C9.11426 18.3192 8.76009 18.6875 8.33301 18.6875ZM15.1038 18.6875H10.9372C10.5101 18.6875 10.1559 18.3192 10.1559 17.875C10.1559 17.4308 10.5101 17.0625 10.9372 17.0625H15.1038C15.5309 17.0625 15.8851 17.4308 15.8851 17.875C15.8851 18.3192 15.5309 18.6875 15.1038 18.6875Z" fill="#6953D3"/>
</svg>